<?xml version="1.0" encoding="UTF-8" standalone="no"?>
<!-- Created with Inkscape (http://www.inkscape.org/) -->

<svg
   version="1.1"
   id="svg3354"
   xml:space="preserve"
   width="682.66669"
   height="682.66669"
   viewBox="0 0 682.66669 682.66669"
   xmlns="http://www.w3.org/2000/svg"
   xmlns:svg="http://www.w3.org/2000/svg"><defs
     id="defs3358"><clipPath
       clipPathUnits="userSpaceOnUse"
       id="clipPath3368"><path
         d="M 0,512 H 512 V 0 H 0 Z"
         id="path3366" /></clipPath></defs><g
     id="g3360"
     transform="matrix(1.3333333,0,0,-1.3333333,0,682.66667)"><g
       id="g3362"><g
         id="g3364"
         clip-path="url(#clipPath3368)"><g
           id="g3370"
           transform="translate(300.9999,502)"><path
             d="m 0,0 h 171 c 16.569,0 30,-13.431 30,-30 v -320 c 0,-16.569 -13.431,-30 -30,-30 h -432 c -16.568,0 -30,13.431 -30,30 v 320 c 0,16.569 13.432,30 30,30 h 171"
             style="fill:none;stroke:#000000;stroke-width:20;stroke-linecap:round;stroke-linejoin:round;stroke-miterlimit:10;stroke-dasharray:none;stroke-opacity:1"
             id="path3372" /></g><g
           id="g3374"
           transform="translate(376,10)"><path
             d="m 0,0 h -240 v 0 c 0,28.719 23.281,52 52,52 H -52 C -23.281,52 0,28.719 0,0 Z"
             style="fill:none;stroke:#000000;stroke-width:20;stroke-linecap:round;stroke-linejoin:round;stroke-miterlimit:10;stroke-dasharray:none;stroke-opacity:1"
             id="path3376" /></g><path
           d="m 296,62 h -80 v 60 h 80 z"
           style="fill:none;stroke:#000000;stroke-width:20;stroke-linecap:round;stroke-linejoin:round;stroke-miterlimit:10;stroke-dasharray:none;stroke-opacity:1"
           id="path3378" /><g
           id="g3380"
           transform="translate(472,122)"><path
             d="m 0,0 h -432 c -16.569,0 -30,13.431 -30,30 V 56 H 30 V 30 C 30,13.431 16.569,0 0,0 Z"
             style="fill:none;stroke:#000000;stroke-width:20;stroke-linecap:round;stroke-linejoin:round;stroke-miterlimit:10;stroke-dasharray:none;stroke-opacity:1"
             id="path3382" /></g><g
           id="g3384"
           transform="translate(256,150)"><path
             d="M 0,0 V 0"
             style="fill:none;stroke:#000000;stroke-width:20;stroke-linecap:round;stroke-linejoin:round;stroke-miterlimit:10;stroke-dasharray:none;stroke-opacity:1"
             id="path3386" /></g><g
           id="g3388"
           transform="translate(256,502)"><path
             d="M 0,0 V 0"
             style="fill:none;stroke:#000000;stroke-width:20;stroke-linecap:round;stroke-linejoin:round;stroke-miterlimit:10;stroke-dasharray:none;stroke-opacity:1"
             id="path3390" /></g><g
           id="g3392"
           transform="translate(337.5621,339.5668)"><path
             d="m 0,0 v -69.512 l -91.562,-47.194 -91.562,47.194 V 0"
             style="fill:none;stroke:#000000;stroke-width:20;stroke-linecap:round;stroke-linejoin:round;stroke-miterlimit:10;stroke-dasharray:none;stroke-opacity:1"
             id="path3394" /></g><g
           id="g3396"
           transform="translate(140.4552,397.8772)"><path
             d="m 0,0 105.545,54.455 152.31,-78.583 -152.31,-78.583 -152.31,78.583 L 0,0"
             style="fill:none;stroke:#000000;stroke-width:20;stroke-linecap:round;stroke-linejoin:round;stroke-miterlimit:10;stroke-dasharray:none;stroke-opacity:1"
             id="path3398" /></g><g
           id="g3400"
           transform="translate(246,373.7491)"><path
             d="M 0,0 V 0"
             style="fill:none;stroke:#000000;stroke-width:20;stroke-linecap:round;stroke-linejoin:round;stroke-miterlimit:10;stroke-dasharray:none;stroke-opacity:1"
             id="path3402" /></g><g
           id="g3404"
           transform="translate(291,373.7491)"><path
             d="M 0,0 H 107.31 V -46.642"
             style="fill:none;stroke:#000000;stroke-width:20;stroke-linecap:round;stroke-linejoin:round;stroke-miterlimit:10;stroke-dasharray:none;stroke-opacity:1"
             id="path3406" /></g><g
           id="g3408"
           transform="translate(418.31,246.854)"><path
             d="m 0,0 h -40 v 58.7 c 0,11.045 8.954,20 20,20 v 0 c 11.046,0 20,-8.955 20,-20 z"
             style="fill:none;stroke:#000000;stroke-width:20;stroke-linecap:round;stroke-linejoin:round;stroke-miterlimit:10;stroke-dasharray:none;stroke-opacity:1"
             id="path3410" /></g></g></g></g></svg>
