<svg id="Capa_1" enable-background="new 0 0 605.625 605.625" viewBox="0 0 605.625 605.625" xmlns="http://www.w3.org/2000/svg"><g><g clip-rule="evenodd" fill-rule="evenodd"><path d="m154.058 40.169c-30.262 0-54.831 24.569-54.831 54.831 0 30.256 24.569 54.825 54.831 54.825 30.256 0 54.825-24.569 54.825-54.825 0-30.262-24.569-54.831-54.825-54.831zm0 19.125c19.699 0 35.7 16.001 35.7 35.706 0 19.699-16.001 35.7-35.7 35.7-19.705 0-35.706-16.001-35.706-35.7 0-19.705 16.001-35.706 35.706-35.706z"/><path d="m65.356 248.357c10.512-39.143 46.263-67.983 88.702-67.983 39.652 0 73.465 25.188 86.305 60.422 1.811 4.96 7.299 7.516 12.259 5.712s7.516-7.299 5.712-12.259c-15.517-42.572-56.374-73-104.276-73-51.274 0-94.471 34.859-107.17 82.148-1.371 5.1 1.658 10.347 6.757 11.717 5.094 1.371 10.347-1.657 11.711-6.757z"/><path d="m128.01 200.385-3.876 20.12c-.574 2.939.274 5.98 2.282 8.211l18.583 20.642c1.811 2.015 4.399 3.162 7.108 3.162s5.291-1.148 7.102-3.162l16.887-18.755c1.951-2.167 2.805-5.106 2.327-7.975l-7.044-42.088c-.873-5.208-5.808-8.727-11.016-7.854-5.202.873-8.721 5.808-7.848 11.01l6.279 37.536-6.687 7.433-8.294-9.212 2.977-15.44c1.001-5.183-2.397-10.2-7.58-11.201-5.182-1.001-10.199 2.397-11.2 7.573z"/><path d="m189.714 344.142h-150.769c-1.766 0-3.188-1.428-3.188-3.188v-59.778c0-5.272-4.29-9.562-9.562-9.562-5.278 0-9.562 4.29-9.562 9.562v59.778c0 12.323 9.99 22.312 22.312 22.312h150.769c5.279 0 9.562-4.284 9.562-9.562s-4.284-9.562-9.562-9.562z"/><path d="m245.896 255.44c.867.268 1.791.408 2.748.408 5.278 0 9.562-4.29 9.562-9.562 0-.115 0-.223 0-.331.019-2.55-.982-4.998-2.773-6.809-1.798-1.811-4.239-2.831-6.789-2.831h-226.332c-5.916 0-11.59 2.352-15.778 6.534-4.182 4.189-6.534 9.862-6.534 15.778v9.798c0 5.922 2.352 11.596 6.534 15.778 4.182 4.188 9.862 6.534 15.778 6.534h239.082c5.279 0 9.562-4.284 9.562-9.562 0-5.272-4.284-9.562-9.562-9.562h-239.082c-.848 0-1.658-.331-2.257-.931-.593-.599-.931-1.409-.931-2.257v-9.798c0-.841.338-1.651.931-2.25.599-.599 1.409-.937 2.257-.937z"/><path d="m451.567 40.169c-30.256 0-54.825 24.569-54.825 54.831 0 30.256 24.569 54.825 54.825 54.825 30.262 0 54.831-24.569 54.831-54.825 0-30.262-24.569-54.831-54.831-54.831zm0 19.125c19.705 0 35.706 16.001 35.706 35.706 0 19.699-16.001 35.7-35.706 35.7-19.699 0-35.7-16.001-35.7-35.7 0-19.705 16.001-35.706 35.7-35.706z"/><path d="m365.262 240.796c12.839-35.235 46.652-60.422 86.305-60.422 42.438 0 78.189 28.841 88.702 67.983 1.364 5.1 6.617 8.128 11.711 6.758 5.1-1.371 8.128-6.617 6.758-11.717-12.699-47.29-55.896-82.148-107.17-82.148-47.902 0-88.759 30.428-104.276 73-1.804 4.96.752 10.455 5.712 12.259 4.959 1.804 10.447-.753 12.258-5.713z"/><path d="m424.9 201.801-3.283 18.876c-.504 2.888.344 5.852 2.314 8.039l18.583 20.642c1.81 2.015 4.399 3.162 7.108 3.162s5.291-1.148 7.102-3.162l16.887-18.755c1.919-2.129 2.779-5.004 2.346-7.835l-7.044-46.423c-.79-5.215-5.667-8.81-10.889-8.02-5.215.791-8.81 5.674-8.02 10.889l6.369 41.954-6.751 7.497-8.37-9.288 2.493-14.293c.905-5.202-2.582-10.155-7.784-11.061-5.196-.905-10.156 2.576-11.061 7.778z"/><path d="m569.868 281.176v59.778c0 1.759-1.422 3.188-3.188 3.188-30.855 0-102.013 0-151.719 0-5.272 0-9.562 4.284-9.562 9.562s4.29 9.562 9.562 9.562h151.719c12.323 0 22.312-9.99 22.312-22.312v-59.778c0-5.272-4.284-9.562-9.562-9.562-5.272-.001-9.562 4.29-9.562 9.562z"/><path d="m359.729 255.44h223.584c.848 0 1.658.338 2.257.937.593.599.931 1.409.931 2.25v9.798c0 .848-.338 1.658-.931 2.257-.599.599-1.409.931-2.257.931h-198.716c-5.278 0-9.562 4.29-9.562 9.562 0 5.279 4.284 9.562 9.562 9.562h198.715c5.916 0 11.596-2.346 15.778-6.534 4.182-4.182 6.534-9.856 6.534-15.778 0-3.188 0-6.604 0-9.798 0-5.916-2.352-11.59-6.534-15.778-4.188-4.182-9.862-6.534-15.778-6.534-49.515 0-226.332 0-226.332 0-2.55 0-4.992 1.02-6.789 2.83-1.791 1.811-2.792 4.258-2.773 6.809v.331c0 5.272 4.284 9.562 9.562 9.562.957.001 1.882-.139 2.749-.407z"/><path d="m302.812 182.548c-35.177 0-63.731 28.56-63.731 63.737 0 35.171 28.554 63.731 63.731 63.731s63.731-28.56 63.731-63.731c0-35.177-28.553-63.737-63.731-63.737zm0 19.125c24.62 0 44.606 19.992 44.606 44.612 0 24.614-19.986 44.606-44.606 44.606s-44.606-19.992-44.606-44.606c.001-24.62 19.986-44.612 44.606-44.612z"/><path d="m194.845 429.331c12.795-47.647 56.317-82.754 107.967-82.754s95.172 35.107 107.967 82.754c1.371 5.1 6.617 8.128 11.717 6.758 5.094-1.371 8.122-6.617 6.751-11.717-14.981-55.8-65.943-96.919-126.435-96.919s-111.454 41.119-126.435 96.919c-1.371 5.1 1.658 10.347 6.751 11.717 5.1 1.37 10.347-1.658 11.717-6.758z"/><path d="m330.117 419.405-8.428-50.369c-.873-5.202-5.808-8.721-11.016-7.848-5.202.867-8.721 5.801-7.848 11.01l8.428 50.369c.873 5.202 5.808 8.721 11.01 7.848 5.208-.868 8.727-5.802 7.854-11.01zm-58.115-18.832-3.156 16.339c-1.001 5.183 2.397 10.2 7.58 11.201s10.2-2.397 11.201-7.58l3.149-16.333c1.001-5.183-2.391-10.2-7.573-11.201-5.183-1-10.2 2.391-11.201 7.574z"/><path d="m332.89 347.533-11.603 13.56c-.637.746-1.581 1.16-2.563 1.116s-1.887-.535-2.454-1.339l-9.027-12.667c-3.066-4.297-9.04-5.304-13.337-2.238-4.303 3.06-5.304 9.033-2.244 13.336 0 0 4.482 6.286 9.033 12.667 3.984 5.597 10.321 9.04 17.181 9.346s13.483-2.569 17.946-7.79l11.596-13.56c3.436-4.01 2.964-10.047-1.046-13.483-4.009-3.43-10.053-2.958-13.482 1.052z"/><path d="m251.494 359.964 11.596 13.56c4.469 5.221 11.086 8.096 17.946 7.79s13.196-3.749 17.181-9.346c4.552-6.381 9.033-12.667 9.033-12.667 3.06-4.303 2.059-10.276-2.244-13.336-4.297-3.066-10.27-2.059-13.336 2.238l-9.027 12.667c-.567.803-1.473 1.294-2.454 1.339s-1.925-.37-2.563-1.116l-11.603-13.56c-3.43-4.01-9.467-4.482-13.483-1.052-4.011 3.436-4.482 9.473-1.046 13.483z"/><path d="m140.231 506.175v36.969c0 5.916 2.346 11.59 6.534 15.778 4.182 4.182 9.856 6.534 15.778 6.534h280.538c5.922 0 11.596-2.352 15.778-6.534 4.188-4.188 6.534-9.862 6.534-15.778 0-24.123 0-74.046 0-74.046 0-5.279-4.284-9.562-9.562-9.562-5.272 0-9.562 4.284-9.562 9.562v74.046c0 .842-.332 1.651-.931 2.25s-1.409.937-2.257.937c-49.782 0-230.756 0-280.538 0-.848 0-1.658-.338-2.257-.937s-.931-1.409-.931-2.25v-36.969c0-5.279-4.29-9.562-9.562-9.562-5.278 0-9.562 4.284-9.562 9.562z"/><path d="m485.297 439.601c0-5.916-2.346-11.59-6.534-15.778-4.182-4.182-9.856-6.534-15.778-6.534-54.309 0-266.035 0-320.344 0-5.922 0-11.596 2.352-15.778 6.534-4.188 4.188-6.534 9.862-6.534 15.778v16.747c0 5.916 2.346 11.59 6.534 15.778 4.182 4.182 9.856 6.534 15.778 6.534h320.344c5.922 0 11.596-2.352 15.778-6.534 4.188-4.188 6.534-9.862 6.534-15.778zm-19.125 0v16.747c0 .848-.332 1.658-.931 2.25-.599.599-1.409.937-2.257.937h-320.343c-.848 0-1.658-.338-2.257-.937-.599-.593-.931-1.402-.931-2.25v-16.747c0-.841.331-1.657.931-2.25.599-.599 1.409-.937 2.257-.937h320.344c.848 0 1.658.338 2.257.937.598.592.93 1.408.93 2.25z"/></g></g><g/><g/><g/><g/><g/><g/><g/><g/><g/><g/><g/><g/><g/><g/><g/></svg>