<svg id="Capa_1" enable-background="new 0 0 605.625 605.625" viewBox="0 0 605.625 605.625" xmlns="http://www.w3.org/2000/svg"><g><g clip-rule="evenodd" fill-rule="evenodd"><path d="m166.228 137.355v-80.956c0-2.569 1.02-5.03 2.831-6.84 1.817-1.817 4.278-2.837 6.847-2.837h400.917c2.569 0 5.03 1.02 6.84 2.837 1.817 1.81 2.837 4.271 2.837 6.84v306.077c0 2.569-1.02 5.03-2.837 6.84-1.81 1.817-4.271 2.837-6.84 2.837h-200.054c-5.279 0-9.562 4.284-9.562 9.562s4.284 9.562 9.562 9.562h200.054c7.637 0 14.962-3.035 20.368-8.434 5.4-5.406 8.434-12.731 8.434-20.368v-306.076c0-7.637-3.034-14.962-8.434-20.368-5.406-5.4-12.731-8.434-20.368-8.434-72.458 0-328.459 0-400.917 0-7.637 0-14.968 3.035-20.368 8.434-5.4 5.406-8.434 12.731-8.434 20.368v80.956c0 5.278 4.284 9.562 9.562 9.562s9.562-4.283 9.562-9.562z"/><path d="m371.879 432.594v135.87c0 5.279 4.29 9.562 9.562 9.562 5.279 0 9.562-4.284 9.562-9.562v-135.87c0-5.279-4.284-9.562-9.562-9.562-5.272 0-9.562 4.284-9.562 9.562z"/><path d="m596.062 316.295h-107.444c-12.368 0-22.389 10.021-22.389 22.389v43.031c0 5.279 4.284 9.562 9.562 9.562 5.279 0 9.562-4.284 9.562-9.562v-43.031c0-1.804 1.46-3.264 3.264-3.264h107.444c5.279 0 9.562-4.284 9.562-9.562s-4.282-9.563-9.561-9.563z"/><path d="m223.265 111.211h132.039c5.272 0 9.562-4.284 9.562-9.562 0-5.279-4.29-9.562-9.562-9.562h-132.039c-5.278 0-9.562 4.284-9.562 9.562-.001 5.278 4.283 9.562 9.562 9.562z"/><path d="m223.265 160.624h316.359c5.279 0 9.562-4.284 9.562-9.562 0-5.272-4.284-9.562-9.562-9.562h-316.359c-5.278 0-9.562 4.29-9.562 9.562-.001 5.278 4.283 9.562 9.562 9.562z"/><path d="m281.137 210.043h62.398c5.279 0 9.562-4.284 9.562-9.562 0-5.279-4.284-9.562-9.562-9.562h-62.398c-5.272 0-9.562 4.284-9.562 9.562s4.29 9.562 9.562 9.562z"/><path d="m434.36 277.548h98.698c5.279 0 9.562-4.284 9.562-9.562 0-5.272-4.284-9.562-9.562-9.562h-98.698c-5.279 0-9.562 4.29-9.562 9.562 0 5.278 4.284 9.562 9.562 9.562z"/><path d="m457.98 210.043h80.115c5.279 0 9.562-4.284 9.562-9.562 0-5.279-4.284-9.562-9.562-9.562h-80.115c-5.272 0-9.562 4.284-9.562 9.562-.001 5.278 4.29 9.562 9.562 9.562z"/><path d="m152.534 157.927c-48.546 0-87.956 39.41-87.956 87.956s39.41 87.956 87.956 87.956c48.539 0 87.956-39.41 87.956-87.956s-39.416-87.956-87.956-87.956zm0 19.125c37.989 0 68.831 30.842 68.831 68.831s-30.842 68.831-68.831 68.831-68.831-30.842-68.831-68.831 30.843-68.831 68.831-68.831z"/><path d="m312.419 325.947-35.77 34.317c-1.804 1.728-4.201 2.69-6.7 2.69h-165.565c-42.317 0-78.457 30.543-85.514 72.273-6.362 37.6-13.993 82.735-18.468 109.197-1.409 8.358.931 16.913 6.4 23.39 5.476 6.477 13.521 10.213 22 10.213h177.225c15.912 0 28.809-12.897 28.809-28.802v-90.493c0-.867.338-1.696.95-2.308.618-.612 1.447-.956 2.314-.956h42.483c19.546 0 38.333-7.554 52.434-21.082 12.693-12.176 29.497-28.292 43.446-41.68 8.855-8.492 13.968-20.151 14.223-32.417.255-12.138-4.278-23.887-12.603-32.71-.083-.089-.44-.459-.529-.548-8.466-8.683-20.017-13.7-32.155-13.955-12.267-.249-24.125 4.373-32.98 12.871zm-22.529 48.112c7.829-7.51 22.587-21.669 35.77-34.317 5.189-4.979 12.151-7.695 19.342-7.542 7.121.147 13.891 3.086 18.857 8.179.051.057.261.274.312.331 4.883 5.17 7.542 12.061 7.395 19.176-.147 7.197-3.149 14.038-8.345 19.017-13.949 13.387-30.753 29.503-43.446 41.68-10.538 10.111-24.582 15.759-39.194 15.759-14.248 0-31.148 0-42.483 0-5.941 0-11.634 2.359-15.835 6.56-4.195 4.195-6.554 9.894-6.554 15.829v90.493c-.006 5.342-4.335 9.677-9.677 9.677-.006 0-177.231 0-177.231 0-2.85 0-5.553-1.256-7.389-3.43-1.842-2.18-2.626-5.055-2.155-7.86l18.468-109.197c5.502-32.525 33.673-56.336 66.657-56.336h165.565c7.435.001 14.575-2.875 19.943-8.019z"/><path d="m85.877 570.058 16.722-98.908c.88-5.202-2.627-10.143-7.835-11.022-5.202-.88-10.143 2.633-11.022 7.835l-16.722 98.908c-.88 5.202 2.626 10.143 7.835 11.022 5.202.88 10.143-2.633 11.022-7.835z"/><path d="m86.311 519.696h57.528c1.804 0 3.264 1.46 3.264 3.264v45.505c0 5.279 4.284 9.562 9.562 9.562 5.279 0 9.562-4.284 9.562-9.562v-45.505c0-12.368-10.028-22.389-22.389-22.389-20.292 0-57.528 0-57.528 0-5.278 0-9.562 4.284-9.562 9.562 0 5.279 4.284 9.563 9.563 9.563z"/><path d="m364.407 327.19 39.608-123.796c1.606-5.03-1.167-10.41-6.197-12.023-5.023-1.606-10.41 1.167-12.023 6.197l-39.602 123.796c-1.607 5.023 1.167 10.41 6.19 12.023 5.031 1.606 10.418-1.174 12.024-6.197z"/></g></g><g/><g/><g/><g/><g/><g/><g/><g/><g/><g/><g/><g/><g/><g/><g/></svg>