<?xml version="1.0" encoding="UTF-8" standalone="no"?>
<!-- Created with Inkscape (http://www.inkscape.org/) -->

<svg
   version="1.1"
   id="svg1005"
   xml:space="preserve"
   width="682.66669"
   height="682.66669"
   viewBox="0 0 682.66669 682.66669"
   xmlns="http://www.w3.org/2000/svg"
   xmlns:svg="http://www.w3.org/2000/svg"><defs
     id="defs1009"><clipPath
       clipPathUnits="userSpaceOnUse"
       id="clipPath1027"><path
         d="M 0,512 H 512 V 0 H 0 Z"
         id="path1025" /></clipPath></defs><g
     id="g1011"
     transform="matrix(1.3333333,0,0,-1.3333333,0,682.66667)"><g
       id="g1013"
       transform="translate(470.1328,360.6763)"><path
         d="M 0,0 -58.853,-68.918"
         style="fill:none;stroke:#000000;stroke-width:15;stroke-linecap:round;stroke-linejoin:round;stroke-miterlimit:10;stroke-dasharray:none;stroke-opacity:1"
         id="path1015" /></g><g
       id="g1017"
       transform="translate(403.8711,456.1445)"><path
         d="M 0,0 65.063,-65.063"
         style="fill:none;stroke:#000000;stroke-width:15;stroke-linecap:round;stroke-linejoin:round;stroke-miterlimit:10;stroke-dasharray:none;stroke-opacity:1"
         id="path1019" /></g><g
       id="g1021"><g
         id="g1023"
         clip-path="url(#clipPath1027)"><g
           id="g1029"
           transform="translate(255.8066,119.6919)"><path
             d="M 0,0 V -110.07"
             style="fill:none;stroke:#000000;stroke-width:15;stroke-linecap:round;stroke-linejoin:round;stroke-miterlimit:10;stroke-dasharray:none;stroke-opacity:1"
             id="path1031" /></g><g
           id="g1033"
           transform="translate(316.9248,9.5981)"><path
             d="m 0,0 -20.417,22.387 c -3.686,4.042 -8.903,6.345 -14.373,6.345 h -52.656 c -5.471,0 -10.689,-2.303 -14.374,-6.345 L -122.237,0"
             style="fill:none;stroke:#000000;stroke-width:15;stroke-linecap:round;stroke-linejoin:round;stroke-miterlimit:10;stroke-dasharray:none;stroke-opacity:1"
             id="path1035" /></g><g
           id="g1037"
           transform="translate(45.9561,334.3774)"><path
             d="M 0,0 V -39.147"
             style="fill:none;stroke:#000000;stroke-width:15;stroke-linecap:round;stroke-linejoin:round;stroke-miterlimit:10;stroke-dasharray:none;stroke-opacity:1"
             id="path1039" /></g><g
           id="g1041"
           transform="translate(243.627,295.2305)"><path
             d="m 0,0 v 114.335 c 0,6.838 -5.543,12.382 -12.382,12.382 h -172.906 c -6.839,0 -12.383,-5.544 -12.383,-12.382 V 74.772"
             style="fill:none;stroke:#000000;stroke-width:15;stroke-linecap:round;stroke-linejoin:round;stroke-miterlimit:10;stroke-dasharray:none;stroke-opacity:1"
             id="path1043" /></g><g
           id="g1045"
           transform="translate(494.7109,226.106)"><path
             d="m 0,0 h -477.422 c -5.406,0 -9.789,4.383 -9.789,9.789 v 18.197 c 0,5.406 4.383,9.789 9.789,9.789 H 0 c 5.406,0 9.789,-4.383 9.789,-9.789 V 9.789 C 9.789,4.383 5.406,0 0,0 Z"
             style="fill:none;stroke:#000000;stroke-width:15;stroke-linecap:round;stroke-linejoin:round;stroke-miterlimit:10;stroke-dasharray:none;stroke-opacity:1"
             id="path1047" /></g><g
           id="g1049"
           transform="translate(251.125,263.8809)"><path
             d="m 0,0 c 7.545,2.742 12.944,9.955 12.944,18.447 v 4.689 c 0,4.536 -3.677,8.214 -8.213,8.214 h -221.627 c -4.537,0 -8.213,-3.678 -8.213,-8.214 v -4.689 c 0,-8.492 5.399,-15.705 12.944,-18.447"
             style="fill:none;stroke:#000000;stroke-width:15;stroke-linecap:round;stroke-linejoin:round;stroke-miterlimit:10;stroke-dasharray:none;stroke-opacity:1"
             id="path1051" /></g><g
           id="g1053"
           transform="translate(450.1895,263.8809)"><path
             d="m 0,0 v 14.88 c 0,7.178 -5.819,12.997 -12.998,12.997 h -83.709 c -7.179,0 -12.998,-5.819 -12.998,-12.997 V 0"
             style="fill:none;stroke:#000000;stroke-width:15;stroke-linecap:round;stroke-linejoin:round;stroke-miterlimit:10;stroke-dasharray:none;stroke-opacity:1"
             id="path1055" /></g><g
           id="g1057"
           transform="translate(396.1104,448.3838)"><path
             d="m 0,0 11.155,11.156 c 8.262,8.261 8.262,21.657 0,29.918 l -6.748,6.748 c -8.261,8.261 -21.656,8.261 -29.918,0 L -36.667,36.666 Z"
             style="fill:none;stroke:#000000;stroke-width:15;stroke-linecap:round;stroke-linejoin:round;stroke-miterlimit:10;stroke-dasharray:none;stroke-opacity:1"
             id="path1059" /></g><g
           id="g1061"
           transform="translate(359.4434,485.0498)"><path
             d="m 0,0 -56.659,-16.599 c -5.323,-1.56 -7.034,-8.252 -3.112,-12.174 L 7.893,-96.437 c 3.922,-3.922 10.615,-2.212 12.174,3.112 l 16.6,56.659"
             style="fill:none;stroke:#000000;stroke-width:15;stroke-linecap:round;stroke-linejoin:round;stroke-miterlimit:10;stroke-dasharray:none;stroke-opacity:1"
             id="path1063" /></g><g
           id="g1065"
           transform="translate(462.8643,376.4297)"><path
             d="m 0,0 c 0,-11.444 9.277,-20.721 20.721,-20.721 11.444,0 20.721,9.277 20.721,20.721 0,11.444 -9.277,20.721 -20.721,20.721 C 9.277,20.721 0,11.444 0,0 Z"
             style="fill:none;stroke:#000000;stroke-width:15;stroke-linecap:round;stroke-linejoin:round;stroke-miterlimit:10;stroke-dasharray:none;stroke-opacity:1"
             id="path1067" /></g><g
           id="g1069"
           transform="translate(41.3193,226.106)"><path
             d="m 0,0 v -203.066 c 0,-7.309 5.925,-13.234 13.234,-13.234 h 14.749 c 7.309,0 13.234,5.925 13.234,13.234 V 0"
             style="fill:none;stroke:#000000;stroke-width:15;stroke-linecap:round;stroke-linejoin:round;stroke-miterlimit:10;stroke-dasharray:none;stroke-opacity:1"
             id="path1071" /></g><g
           id="g1073"
           transform="translate(470.293,184.7686)"><path
             d="M 0,0 V 41.337"
             style="fill:none;stroke:#000000;stroke-width:15;stroke-linecap:round;stroke-linejoin:round;stroke-miterlimit:10;stroke-dasharray:none;stroke-opacity:1"
             id="path1075" /></g><g
           id="g1077"
           transform="translate(429.0762,226.106)"><path
             d="m 0,0 v -203.066 c 0,-7.309 5.925,-13.234 13.233,-13.234 h 14.75 c 7.309,0 13.234,5.925 13.234,13.234 v 126.587"
             style="fill:none;stroke:#000000;stroke-width:15;stroke-linecap:round;stroke-linejoin:round;stroke-miterlimit:10;stroke-dasharray:none;stroke-opacity:1"
             id="path1079" /></g><g
           id="g1081"
           transform="translate(314.3604,119.6919)"><path
             d="m 0,0 h -117.108 c -15.653,0 -28.342,12.689 -28.342,28.342 0,5.145 4.17,9.315 9.314,9.315 H 19.028 c 5.144,0 9.315,-4.17 9.315,-9.315 C 28.343,12.689 15.653,0 0,0 Z"
             style="fill:none;stroke:#000000;stroke-width:15;stroke-linecap:round;stroke-linejoin:round;stroke-miterlimit:10;stroke-dasharray:none;stroke-opacity:1"
             id="path1083" /></g></g></g></g></svg>
